<svg width="0" height="0" class="hidden">
  <symbol fill="none" xmlns="http://www.w3.org/2000/svg" xmlns:xlink="http://www.w3.org/1999/xlink" viewBox="0 0 12 12" id="telegram">
    <desc>Created with Pixso.</desc>
    <defs>
      <clipPath id="clip1_15976">
        <rect id="003-telegram 1" width="12.000000" height="12.000000" transform="translate(0.000000 -0.500000)" fill="white" fill-opacity="0"></rect>
      </clipPath>
    </defs>
    <rect id="003-telegram 1" width="12.000000" height="12.000000" transform="translate(0.000000 -0.500000)" fill="#FFFFFF" fill-opacity="0"></rect>
    <g clip-path="url(#clip1_15976)">
      <path id="Vector" d="M4.7 7.09L4.5 9.88C4.79 9.88 4.91 9.76 5.06 9.61L6.39 8.34L9.15 10.36C9.66 10.64 10.01 10.49 10.15 9.89L11.96 1.41L11.96 1.41C12.12 0.66 11.69 0.36 11.2 0.55L0.55 4.62C-0.17 4.91 -0.16 5.31 0.43 5.49L3.15 6.34L9.47 2.39C9.77 2.19 10.04 2.3 9.82 2.49L4.7 7.09Z" fill="#5D6C7B" fill-opacity="1.000000" fill-rule="nonzero"></path>
    </g>
  </symbol>
  <symbol fill="none" xmlns="http://www.w3.org/2000/svg" xmlns:xlink="http://www.w3.org/1999/xlink" viewBox="0 0 12 12" id="viber">
    <desc>Created with Pixso.</desc>
    <defs>
      <clipPath id="clip1_15970">
        <rect id="viber 1" width="12.000000" height="12.000000" transform="translate(0.000000 -0.500000)" fill="white" fill-opacity="0"></rect>
      </clipPath>
    </defs>
    <rect id="viber 1" width="12.000000" height="12.000000" transform="translate(0.000000 -0.500000)" fill="#FFFFFF" fill-opacity="0"></rect>
    <g clip-path="url(#clip1_15970)">
      <path id="Vector" d="M6.4 6.27C6.27 6.41 6.04 6.41 5.91 6.27L4.31 4.68C4.24 4.61 4.21 4.52 4.21 4.43C4.21 4.34 4.24 4.25 4.31 4.18L4.59 3.9L3.76 3.06L3.07 3.75C2.84 3.98 2.84 4.35 3.07 4.58L6 7.51C6.11 7.62 6.26 7.68 6.42 7.68C6.58 7.68 6.73 7.62 6.84 7.51L7.52 6.83L6.69 5.99L6.4 6.27Z" fill="#5D6C7B" fill-opacity="1.000000" fill-rule="nonzero"></path>
      <path id="Vector" d="M11.49 3.73C11.49 2.6 11.05 1.54 10.25 0.74C9.44 -0.06 8.38 -0.5 7.26 -0.5L4.75 -0.5C4.75 -0.5 4.75 -0.5 4.75 -0.5C3.62 -0.5 2.56 -0.06 1.75 0.74C0.95 1.54 0.51 2.6 0.51 3.73L0.51 5.7C0.51 6.58 0.78 7.42 1.28 8.13C1.72 8.76 2.32 9.26 3.02 9.57L3.02 10.7C3.02 11.29 3.35 11.49 3.63 11.5C3.83 11.5 4.03 11.4 4.23 11.2L5.49 9.94L7.26 9.94C8.38 9.94 9.44 9.5 10.25 8.69C11.05 7.89 11.49 6.83 11.49 5.7L11.49 3.73ZM8.27 7.07L7.33 8.01C7.09 8.25 6.77 8.38 6.42 8.38C6.07 8.38 5.75 8.25 5.51 8.01L2.58 5.08C2.07 4.57 2.07 3.75 2.58 3.25L3.51 2.32C3.58 2.25 3.66 2.21 3.76 2.21C3.85 2.21 3.94 2.25 4.01 2.32L5.34 3.65C5.4 3.71 5.44 3.8 5.44 3.9C5.44 3.99 5.4 4.08 5.34 4.14L5.05 4.43L6.15 5.53L6.44 5.25C6.58 5.11 6.8 5.11 6.94 5.25L8.27 6.58C8.33 6.64 8.37 6.73 8.37 6.82C8.37 6.92 8.33 7.01 8.27 7.07ZM5.73 2.91C5.73 2.71 5.89 2.56 6.09 2.56C7.3 2.56 8.3 3.55 8.3 4.77C8.3 4.96 8.14 5.12 7.94 5.12C7.75 5.12 7.59 4.96 7.59 4.77C7.59 3.94 6.92 3.26 6.09 3.26C5.89 3.26 5.73 3.1 5.73 2.91ZM9.45 5.12C9.26 5.12 9.1 4.96 9.1 4.77C9.1 3.96 8.78 3.2 8.22 2.64C7.65 2.07 6.89 1.75 6.09 1.75C5.89 1.75 5.73 1.6 5.73 1.4C5.73 1.21 5.89 1.05 6.09 1.05C7.08 1.05 8.01 1.44 8.71 2.14C9.41 2.84 9.8 3.77 9.8 4.77C9.8 4.96 9.64 5.12 9.45 5.12Z" fill="#5D6C7B" fill-opacity="1.000000" fill-rule="nonzero"></path>
    </g>
  </symbol>
  <symbol fill="none" xmlns="http://www.w3.org/2000/svg" xmlns:xlink="http://www.w3.org/1999/xlink" viewBox="0 0 12 12" id="whatsapp">
    <desc>Created with Pixso.</desc>
    <defs>
      <clipPath id="clip1_15973">
        <rect id="003-whatsapp 1" width="12.000000" height="12.000000" transform="translate(-0.500000 -0.500000)" fill="white" fill-opacity="0"></rect>
      </clipPath>
    </defs>
    <rect id="003-whatsapp 1" width="12.000000" height="12.000000" transform="translate(-0.500000 -0.500000)" fill="#FFFFFF" fill-opacity="0"></rect>
    <g clip-path="url(#clip1_15973)">
      <path id="Vector" d="M5.49 -0.5C2.18 -0.5 -0.5 2.18 -0.5 5.5C-0.5 6.64 -0.17 7.77 0.44 8.73L-0.49 11.15C-0.54 11.28 -0.47 11.43 -0.35 11.48C-0.32 11.49 -0.29 11.49 -0.25 11.49C-0.23 11.49 -0.2 11.49 -0.17 11.48L2.33 10.59C5.14 12.34 8.84 11.48 10.59 8.67C12.34 5.85 11.48 2.16 8.67 0.41C7.71 -0.19 6.61 -0.5 5.49 -0.5Z" fill="#5D6C7B" fill-opacity="1.000000" fill-rule="nonzero"></path>
      <path id="Vector" d="M8.35 6.52C8.35 6.52 7.74 6.22 7.36 6.02C6.92 5.8 6.41 6.21 6.17 6.45C5.8 6.31 5.46 6.09 5.17 5.82C4.89 5.53 4.68 5.19 4.53 4.81C4.77 4.57 5.19 4.06 4.97 3.63C4.77 3.25 4.47 2.63 4.47 2.63C4.42 2.55 4.34 2.5 4.24 2.5L3.74 2.5C3.02 2.62 2.49 3.26 2.49 4C2.49 4.78 3.43 6.29 4.07 6.92C4.7 7.55 6.21 8.49 6.99 8.49C7.73 8.5 8.36 7.97 8.49 7.24L8.49 6.74C8.49 6.65 8.44 6.56 8.35 6.52Z" fill="#F7F7F7" fill-opacity="1.000000" fill-rule="nonzero"></path>
    </g>
  </symbol>
	<symbol width="20.000000" height="20.000000" viewBox="0 0 20 20" fill="none" xmlns="http://www.w3.org/2000/svg" xmlns:xlink="http://www.w3.org/1999/xlink"  id="heart">
	<desc>
			Created with Pixso.
	</desc>
	<defs>
		<clipPath id="clip1_15998">
			<rect id="Icon / Outlined / Heart" width="20.000000" height="20.000000" fill="white" fill-opacity="0"/>
		</clipPath>
	</defs>
	<rect id="Icon / Outlined / Heart" width="20.000000" height="20.000000" fill="#FFFFFF" fill-opacity="0"/>
	<g clip-path="url(#clip1_15998)">
		<path id="Vector" d="M17.99 5.51C17.73 4.9 17.35 4.35 16.88 3.88C16.41 3.42 15.86 3.05 15.25 2.79C14.62 2.53 13.94 2.39 13.26 2.4C12.3 2.4 11.36 2.66 10.55 3.16C10.36 3.28 10.17 3.41 10 3.56C9.82 3.41 9.64 3.28 9.44 3.16C8.63 2.66 7.69 2.4 6.73 2.4C6.04 2.4 5.38 2.53 4.74 2.79C4.13 3.05 3.58 3.42 3.11 3.88C2.64 4.35 2.26 4.9 2 5.51C1.73 6.14 1.59 6.82 1.59 7.51C1.59 8.17 1.73 8.85 1.99 9.54C2.21 10.12 2.52 10.72 2.93 11.33C3.56 12.29 4.44 13.29 5.53 14.3C7.34 15.99 9.12 17.15 9.2 17.2L9.66 17.5C9.86 17.63 10.13 17.63 10.33 17.5L10.79 17.2C10.87 17.15 12.65 15.99 14.46 14.3C15.55 13.29 16.43 12.29 17.06 11.33C17.47 10.72 17.78 10.12 18 9.54C18.26 8.85 18.4 8.17 18.4 7.51C18.4 6.82 18.26 6.14 17.99 5.51ZM10 15.94C10 15.94 3.07 11.46 3.07 7.51C3.07 5.51 4.71 3.89 6.73 3.89C8.16 3.89 9.39 4.69 10 5.86C10.6 4.69 11.84 3.89 13.26 3.89C15.28 3.89 16.92 5.51 16.92 7.51C16.92 11.46 10 15.94 10 15.94Z" fill="#282739" fill-opacity="1.000000" fill-rule="nonzero"/>
	</g>
	</symbol>
	<symbol width="21.000000" height="17.000000" viewBox="0 0 21 17" fill="none" xmlns="http://www.w3.org/2000/svg" xmlns:xlink="http://www.w3.org/1999/xlink" id="shopping">
	<desc>
			Created with Pixso.
	</desc>
	<defs/>
	<path id="Vector" d="M19.15 5.25L15 5.25L12.67 -0.08C12.54 -0.38 12.2 -0.51 11.9 -0.38C11.6 -0.25 11.47 0.09 11.6 0.39L13.72 5.25L6.27 5.25L8.39 0.39C8.52 0.09 8.39 -0.25 8.09 -0.38C7.79 -0.51 7.45 -0.38 7.32 -0.08L4.99 5.25L0.84 5.25C0.3 5.25 -0.1 5.74 0.02 6.26L2.2 15.77C2.29 16.15 2.63 16.42 3.03 16.42L16.96 16.42C17.36 16.42 17.7 16.15 17.79 15.77L19.97 6.26C20.09 5.74 19.69 5.25 19.15 5.25ZM5.1 7.05C5.02 7.05 4.94 7.03 4.87 7C4.57 6.87 4.44 6.52 4.57 6.23L5.01 5.22L6.28 5.22L5.64 6.69C5.54 6.91 5.33 7.05 5.1 7.05ZM7.07 13.3C7.07 13.62 6.8 13.88 6.48 13.88C6.16 13.88 5.89 13.62 5.89 13.3L5.89 9C5.89 8.68 6.16 8.41 6.48 8.41C6.8 8.41 7.07 8.68 7.07 9L7.07 13.3ZM10.58 13.3C10.58 13.62 10.32 13.88 10 13.88C9.67 13.88 9.41 13.62 9.41 13.3L9.41 9C9.41 8.68 9.67 8.41 10 8.41C10.32 8.41 10.58 8.68 10.58 9L10.58 13.3ZM14.1 13.3C14.1 13.62 13.83 13.88 13.51 13.88C13.19 13.88 12.92 13.62 12.92 13.3L12.92 9C12.92 8.68 13.19 8.41 13.51 8.41C13.83 8.41 14.1 8.68 14.1 9L14.1 13.3ZM15.12 7C15.05 7.03 14.97 7.05 14.89 7.05C14.66 7.05 14.45 6.91 14.35 6.69L13.71 5.22L14.98 5.22L15.42 6.23C15.55 6.52 15.42 6.87 15.12 7Z" fill="#6F73EE" fill-opacity="1.000000" fill-rule="nonzero"/>
	</symbol>
	<symbol width="20.000000" height="11.000000" viewBox="0 0 20 11" fill="none" xmlns="http://www.w3.org/2000/svg" xmlns:xlink="http://www.w3.org/1999/xlink" id="balance">
	<desc>
			Created with Pixso.
	</desc>
	<defs/>
	<path id="Vector" d="M19.41 6.26L18.77 6.26L16.73 1.32C17.02 1.28 17.24 1.04 17.24 0.74C17.24 0.42 16.97 0.15 16.65 0.15L11.61 0.15C11.37 -0.51 10.73 -0.99 9.98 -0.99C9.23 -0.99 8.59 -0.51 8.35 0.15L3.34 0.15C3.02 0.15 2.75 0.42 2.75 0.74C2.75 1.04 2.97 1.28 3.26 1.32L1.22 6.26L0.58 6.26C0.26 6.26 0 6.52 0 6.84C0 9.13 1.85 10.98 4.13 10.98C6.42 10.98 8.27 9.13 8.27 6.84C8.27 6.52 8.01 6.26 7.69 6.26L7.05 6.26L5.01 1.33L8.35 1.33C8.59 2 9.23 2.47 9.98 2.47C10.73 2.47 11.37 2 11.61 1.33L14.98 1.33L12.94 6.26L12.3 6.26C11.98 6.26 11.72 6.52 11.72 6.84C11.72 9.13 13.57 10.98 15.86 10.98C18.14 10.98 20 9.13 20 6.84C20 6.52 19.73 6.26 19.41 6.26ZM4.13 9.81C2.7 9.81 1.5 8.79 1.22 7.43L7.04 7.43C6.77 8.79 5.57 9.81 4.13 9.81ZM5.78 6.26L2.49 6.26L4.13 2.27L5.78 6.26ZM9.98 1.3C9.67 1.3 9.42 1.05 9.42 0.74C9.42 0.43 9.67 0.18 9.98 0.18C10.29 0.18 10.54 0.43 10.54 0.74C10.54 1.05 10.29 1.3 9.98 1.3ZM15.86 2.27L17.5 6.26L14.21 6.26L15.86 2.27ZM15.86 9.81C14.42 9.81 13.22 8.79 12.95 7.43L18.77 7.43C18.49 8.79 17.29 9.81 15.86 9.81Z" fill="#282739" fill-opacity="1.000000" fill-rule="nonzero"/>
	<path id="Vector" d="M18.19 10.26C17.53 10.72 16.72 10.98 15.86 10.98C14.99 10.98 14.18 10.72 13.52 10.26C13.45 10.21 13.38 10.16 13.31 10.11C13.18 10.01 13.06 9.9 12.95 9.79C12.59 9.44 12.3 9.02 12.09 8.56C11.85 8.04 11.72 7.46 11.72 6.84C11.72 6.54 11.94 6.3 12.24 6.26C12.26 6.26 12.28 6.26 12.3 6.26L12.94 6.26L13.06 5.98L13.29 5.43L13.33 5.33L13.69 4.44L13.81 4.15L14.11 3.43L14.21 3.19L14.23 3.15L14.33 2.91L14.54 2.38L14.59 2.26L14.98 1.33L11.61 1.33C11.39 1.93 10.84 2.39 10.18 2.46C10.12 2.47 10.05 2.47 9.98 2.47C9.92 2.47 9.87 2.47 9.81 2.47C9.13 2.4 8.57 1.94 8.35 1.33L5.01 1.33L5.4 2.26L5.44 2.37L5.66 2.91L5.76 3.15L5.78 3.19L5.88 3.43L6.18 4.15L6.3 4.44L6.66 5.33L6.72 5.45L6.93 5.98L7.05 6.26L7.69 6.26C7.71 6.26 7.73 6.26 7.75 6.26C8.05 6.3 8.27 6.54 8.27 6.84C8.27 7.46 8.14 8.04 7.9 8.56C7.69 9.02 7.4 9.44 7.04 9.79C6.93 9.9 6.81 10.01 6.68 10.11C6.61 10.16 6.54 10.21 6.47 10.26C5.81 10.72 5 10.98 4.13 10.98C3.27 10.98 2.46 10.72 1.8 10.26C1.73 10.21 1.66 10.16 1.59 10.11C1.46 10.01 1.34 9.9 1.22 9.79C0.47 9.04 0 7.99 0 6.84C0 6.52 0.26 6.26 0.58 6.26L1.22 6.26L1.34 5.98L1.73 5.03L1.97 4.44L2.39 3.43L2.49 3.19L2.6 2.91L2.87 2.26L3.26 1.32C3.16 1.31 3.06 1.27 2.99 1.21C2.84 1.1 2.75 0.93 2.75 0.74C2.75 0.42 3.02 0.15 3.34 0.15L8.35 0.15C8.38 0.07 8.42 -0.02 8.47 -0.1C8.76 -0.63 9.33 -0.99 9.98 -0.99C10.62 -0.99 11.19 -0.64 11.49 -0.12C11.54 -0.03 11.58 0.06 11.61 0.15L16.65 0.15C16.97 0.15 17.24 0.42 17.24 0.74C17.24 0.93 17.15 1.1 17 1.21C16.93 1.27 16.83 1.31 16.73 1.32L17.12 2.26L17.39 2.91L17.5 3.19L17.6 3.43L18.02 4.44L18.26 5.03L18.65 5.98L18.77 6.26L19.41 6.26C19.73 6.26 20 6.52 20 6.84C20 7.99 19.52 9.04 18.77 9.79C18.65 9.9 18.53 10.01 18.4 10.11C18.33 10.16 18.26 10.21 18.19 10.26ZM17.23 9.47C16.83 9.68 16.39 9.8 15.91 9.81C15.89 9.81 15.87 9.81 15.86 9.81C15.84 9.81 15.82 9.81 15.8 9.81C15.33 9.8 14.88 9.68 14.48 9.47C13.7 9.06 13.13 8.32 12.95 7.43L18.77 7.43C18.59 8.32 18.01 9.06 17.23 9.47ZM16.71 6.26L17.5 6.26L17.39 5.98L16.63 4.15L16.63 4.15L16.33 3.43L15.86 2.27L15.38 3.43L15.21 3.84L15.08 4.15L14.98 4.39L14.59 5.33L14.33 5.98L14.21 6.26L16.71 6.26ZM3.66 3.43L3.36 4.15L3.36 4.15L2.6 5.98L2.49 6.26L5.78 6.26L5.66 5.98L5.4 5.33L5.01 4.39L4.91 4.15L4.78 3.84L4.61 3.43L4.13 2.27L3.66 3.43ZM2.95 7.43L1.22 7.43C1.4 8.32 1.98 9.06 2.76 9.47C3.16 9.68 3.6 9.8 4.08 9.81C4.1 9.81 4.12 9.81 4.13 9.81C4.15 9.81 4.17 9.81 4.19 9.81C4.66 9.8 5.11 9.68 5.51 9.47C6.29 9.06 6.86 8.32 7.04 7.43L2.95 7.43ZM9.98 1.3C9.67 1.3 9.42 1.05 9.42 0.74C9.42 0.43 9.67 0.18 9.98 0.18C10.29 0.18 10.54 0.43 10.54 0.74C10.54 1.05 10.29 1.3 9.98 1.3Z" fill="#282739" fill-opacity="1.000000" fill-rule="evenodd"/>
	</symbol>
	<symbol width="16.000000" height="16.000000" viewBox="0 0 16 16" fill="none" xmlns="http://www.w3.org/2000/svg" xmlns:xlink="http://www.w3.org/1999/xlink" id="lupa">
	<desc>
			Created with Pixso.
	</desc>
	<defs/>
	<path id="Vector" d="M15.95 14.85L10.75 9.65C11.56 8.61 12 7.33 12 6C12 4.39 11.37 2.89 10.24 1.75C9.1 0.62 7.6 0 5.99 0C4.39 0 2.88 0.62 1.75 1.75C0.62 2.89 0 4.39 0 6C0 7.6 0.62 9.1 1.75 10.24C2.88 11.37 4.39 12 5.99 12C7.33 12 8.61 11.56 9.65 10.76L14.84 15.95C14.86 15.96 14.88 15.97 14.9 15.98C14.92 15.99 14.94 16 14.96 16C14.98 16 15 15.99 15.02 15.98C15.04 15.97 15.06 15.96 15.07 15.95L15.95 15.08C15.96 15.06 15.97 15.04 15.98 15.02C15.99 15 16 14.98 16 14.96C16 14.94 15.99 14.92 15.98 14.9C15.97 14.88 15.96 14.86 15.95 14.85ZM9.16 9.16C8.31 10.01 7.19 10.48 5.99 10.48C4.8 10.48 3.67 10.01 2.83 9.16C1.98 8.31 1.51 7.19 1.51 6C1.51 4.8 1.98 3.67 2.83 2.83C3.67 1.98 4.8 1.52 5.99 1.52C7.19 1.52 8.32 1.98 9.16 2.83C10.01 3.67 10.47 4.8 10.47 6C10.47 7.19 10.01 8.32 9.16 9.16Z" fill="#FFFFFF" fill-opacity="1.000000" fill-rule="nonzero"/>
</symbol>
<symbol width="15.000000" height="15.000000" viewBox="0 0 15 15" fill="none" xmlns="http://www.w3.org/2000/svg" xmlns:xlink="http://www.w3.org/1999/xlink" id="scooter">
	<desc>
			Created with Pixso.
	</desc>
	<defs/>
	<path id="Vector" d="M11.94 9.84L9.31 0.86L11.08 0.67C11.44 0.63 11.71 0.3 11.67 -0.07C11.63 -0.43 11.3 -0.7 10.93 -0.66L5.84 -0.11C5.47 -0.07 5.2 0.26 5.25 0.63C5.28 0.97 5.57 1.22 5.91 1.22C5.93 1.22 5.95 1.22 5.98 1.22L7.97 1L10.64 10.18C10.11 10.49 9.72 10.99 9.54 11.58L4.45 11.58C4.15 10.58 3.22 9.84 2.11 9.84C0.76 9.84 -0.33 10.92 -0.33 12.25C-0.33 13.58 0.76 14.65 2.11 14.65C3.22 14.65 4.15 13.92 4.45 12.91L9.54 12.91C9.83 13.92 10.77 14.65 11.88 14.65C13.23 14.65 14.32 13.58 14.32 12.25C14.32 10.94 13.26 9.87 11.94 9.84Z" fill="#FFFFFF" fill-opacity="1.000000" fill-rule="nonzero"/>
</symbol>
<symbol width="9.000000" height="16.000000" viewBox="0 0 9 16" fill="none" xmlns="http://www.w3.org/2000/svg" xmlns:xlink="http://www.w3.org/1999/xlink"  id="energy">
	<desc>
			Created with Pixso.
	</desc>
	<defs/>
	<path id="Vector" d="M8.19 0L2.19 0L-0.2 8.63L2.2 8.63L0.16 16L0.88 16L7.83 7.36L4.31 7.36L8.19 0Z" fill="#FFFFFF" fill-opacity="1.000000" fill-rule="nonzero"/>
</symbol>
<symbol width="15.000000" height="15.000000" viewBox="0 0 15 15" fill="none" xmlns="http://www.w3.org/2000/svg" xmlns:xlink="http://www.w3.org/1999/xlink" id="group">
	<desc>
			Created with Pixso.
	</desc>
	<defs>
		<clipPath id="clip1_14911">
			<rect id="pin 2" width="15.000000" height="15.000000" fill="white" fill-opacity="0"/>
		</clipPath>
	</defs>
	<rect id="pin 2" width="15.000000" height="15.000000" fill="#FFFFFF" fill-opacity="0"/>
	<g clip-path="url(#clip1_14911)">
		<path id="Vector" d="M11.94 1.84C10.75 0.65 9.17 0 7.5 0C5.82 0 4.24 0.65 3.05 1.84C1.86 3.02 1.21 4.6 1.21 6.28C1.21 7.96 1.86 9.54 3.05 10.73L7.18 14.87C7.27 14.95 7.38 15 7.5 15C7.61 15 7.72 14.95 7.81 14.87L11.94 10.73C13.13 9.54 13.78 7.96 13.78 6.28C13.78 4.6 13.13 3.02 11.94 1.84ZM9.47 8.26C8.94 8.79 8.24 9.08 7.5 9.08C6.75 9.08 6.05 8.79 5.52 8.26C4.99 7.73 4.7 7.03 4.7 6.28C4.7 5.54 4.99 4.84 5.52 4.31C6.05 3.78 6.75 3.49 7.5 3.49C8.24 3.49 8.94 3.78 9.47 4.31C10 4.84 10.29 5.54 10.29 6.28C10.29 7.03 10 7.73 9.47 8.26Z" fill="#FFFFFF" fill-opacity="1.000000" fill-rule="nonzero"/>
	</g>
</symbol>




</svg>
